<svg width="58" height="18" viewBox="0 0 58 18" fill="none" xmlns="http://www.w3.org/2000/svg">
<g clip-path="url(#clip0_5271_18270)">
<path d="M40.5606 1.8319C40.5592 2.31062 40.3662 2.77046 40.0218 3.11029C39.6762 3.45146 39.2076 3.64565 38.7189 3.65105C37.7264 3.66453 36.8636 2.78395 36.8771 1.82381C36.892 0.824554 37.7143 0.000610352 38.7229 0.000610352C39.7329 0.00195887 40.5606 0.829948 40.5606 1.8319Z" fill="#3C1441"/>
<path d="M44.9105 1.84279C44.9632 2.7018 44.1071 3.66464 43.0364 3.65385C41.9643 3.64306 41.2095 2.69371 41.2324 1.81313C41.2581 0.807133 42.0574 -0.0046742 43.0674 0.00341689C44.2138 0.0101595 44.9821 1.04043 44.9105 1.84279Z" fill="#3C1441"/>
<path d="M52.4806 10.4899C53.4177 11.7157 54.3305 12.9105 55.2433 14.1067C56.1547 15.3041 57.089 16.8064 57.9951 17.9971H53.5865L50.0286 13.0885L49.1172 13.9745V17.9971H45.5269V1.69086H49.1388L49.1226 9.04971L49.1982 9.08073L53.2773 4.84639H57.9991L52.4806 10.4899Z" fill="#3C1441"/>
<path d="M13.331 4.70969V1.69171H16.9348V4.68677H22.8381C22.8448 5.71973 22.8381 6.91182 22.8381 7.95153H16.9415C16.9415 7.95153 16.9415 8.46666 16.9415 8.5651C16.9415 10.0754 16.9415 11.5858 16.9415 13.0961C16.9402 13.2997 16.9591 13.5034 16.9982 13.7043C17.1562 14.4635 17.8921 14.9112 18.709 14.7615C19.2545 14.6631 19.6339 14.3529 19.8 13.8365C19.8918 13.5506 19.9067 13.2377 19.9472 12.937C19.9539 12.8278 19.9539 12.7185 19.9472 12.6093L23.3579 12.9599C23.4416 13.3685 23.3741 13.7542 23.3201 14.1291C23.1716 15.158 22.7476 16.0602 21.9672 16.7803C21.3339 17.3682 20.5372 17.7552 19.6798 17.8914C18.4065 18.1005 17.1522 18.0047 15.9612 17.4882C14.4827 16.8477 13.6577 15.6961 13.4012 14.1412C13.3499 13.7933 13.3269 13.4427 13.331 13.0907C13.3242 11.6141 13.331 10.1388 13.331 8.66085V7.96771H11.4082V4.70969H13.331Z" fill="#3C1441"/>
<path d="M0.00951185 13.4533C0.0162631 13.4155 3.14074 12.8033 3.14074 12.8033C3.17855 12.9112 3.21771 13.0136 3.25146 13.1175C3.36893 13.4978 3.56202 13.8524 3.81992 14.1585C4.40998 14.8247 5.18097 15.0094 6.03298 14.9474C6.28547 14.9299 6.53392 14.884 6.77562 14.8112C6.9498 14.7573 7.11318 14.6737 7.25901 14.5644C7.75995 14.1922 7.74239 13.5504 7.205 13.2375C6.90524 13.0689 6.58118 12.9489 6.24497 12.8815C5.66031 12.7588 5.0635 12.7048 4.47749 12.5956C3.59713 12.4324 2.77347 12.1277 2.06054 11.5734C1.17613 10.883 0.734596 9.966 0.691388 8.86291C0.630627 7.2339 1.40297 6.06878 2.84639 5.36216C4.33571 4.62992 5.90065 4.53552 7.46154 5.12617C8.94682 5.68985 9.9055 6.77676 10.4051 8.26147C10.4078 8.29384 10.4064 8.32485 10.401 8.35722L7.56416 9.2823C7.48585 9.13127 7.42104 9.00046 7.35217 8.8737C7.10643 8.40981 6.69325 8.0565 6.19231 7.88254C5.69271 7.70858 5.14451 7.72881 4.65977 7.93783C4.5234 7.99581 4.40053 8.08212 4.29926 8.18865C4.2412 8.24934 4.19664 8.31946 4.16828 8.39767C4.14128 8.47589 4.13048 8.55815 4.13858 8.64041C4.14668 8.72267 4.17233 8.80223 4.21284 8.8737C4.2547 8.94652 4.31141 9.00855 4.37892 9.05575C4.56661 9.1879 4.77725 9.2796 5.00139 9.32815C5.44967 9.4212 5.9074 9.47244 6.36244 9.53312C7.17394 9.64235 7.96789 9.81766 8.71728 10.1534C9.32084 10.4272 9.85959 10.7859 10.2822 11.2997C10.7264 11.8431 10.9897 12.508 11.037 13.2038C11.1383 14.4309 10.8061 15.5205 9.93655 16.424C9.31004 17.0659 8.51204 17.5204 7.63573 17.7335C5.91011 18.1812 4.2358 18.0895 2.6641 17.2089C1.25714 16.4227 0.411886 15.205 0.0122124 13.6717C0.00411085 13.6394 6.01001e-05 13.611 -0.00129015 13.5706C-0.0026404 13.5247 0.00411085 13.4924 0.00951185 13.4533Z" fill="#3C1441"/>
<path d="M42.6828 4.88489V18.0006H39.1086V4.88489H42.6828Z" fill="#3C1441"/>
<path fill-rule="evenodd" clip-rule="evenodd" d="M25.7521 6.95643C24.6516 8.24427 24.1736 9.75056 24.1817 11.4187C24.1817 11.4807 24.1804 11.5427 24.179 11.6061C24.1763 11.7477 24.1723 11.8907 24.1858 12.0309C24.2101 12.3141 24.2506 12.5946 24.3086 12.8724C24.7961 15.1109 26.0802 16.7089 28.2608 17.5423C29.6489 18.0723 31.0828 18.1275 32.533 17.7877C34.3302 17.367 35.721 16.3745 36.5851 14.763C37.7139 12.6526 37.7315 10.4734 36.7242 8.31034C36.0018 6.76224 34.7852 5.70501 33.1568 5.14402C31.6554 4.62619 30.1363 4.62215 28.6173 5.08739C27.4979 5.42182 26.5014 6.07046 25.7521 6.95643ZM33.3432 9.67909C33.6443 10.1942 33.7995 10.7795 33.7928 11.3755C33.786 11.7477 33.7388 12.0902 33.6456 12.4085C33.5079 12.8886 33.2648 13.3106 32.903 13.6869C32.8976 13.6923 32.8908 13.699 32.8854 13.7058C31.9295 14.6848 30.2052 14.8601 29.0318 14.0051C28.809 13.8433 28.6065 13.6451 28.4323 13.4077C28.3013 13.227 28.1852 13.0248 28.0907 12.7996C28.0853 12.7874 28.0812 12.7766 28.0758 12.7658C27.7842 12.0565 27.6991 11.3539 27.8422 10.6824C27.9476 10.1915 28.1758 9.7155 28.5363 9.26779C29.7407 7.77498 32.105 7.89095 33.2041 9.46332C33.2527 9.5348 33.3 9.60627 33.3432 9.67909Z" fill="#3C1441"/>
</g>
<defs>
<clipPath id="clip0_5271_18270">
<rect width="58" height="18" fill="white"/>
</clipPath>
</defs>
</svg>
